<svg xmlns="http://www.w3.org/2000/svg" viewBox="0 0 64 64" fill="currentColor">
  <!-- Body -->
  <ellipse cx="32" cy="30" rx="8" ry="10"/>
  <ellipse cx="32" cy="44" rx="6" ry="7"/>
  <!-- Head -->
  <circle cx="32" cy="19" r="5"/>
  <!-- Eyes -->
  <circle cx="30" cy="18" r="1.2" fill="#ef233c"/>
  <circle cx="34" cy="18" r="1.2" fill="#ef233c"/>
  <!-- Legs - left side -->
  <path d="M24 26 Q14 18 6 14" stroke="currentColor" stroke-width="2.5" stroke-linecap="round" fill="none"/>
  <path d="M24 30 Q12 26 4 24" stroke="currentColor" stroke-width="2.5" stroke-linecap="round" fill="none"/>
  <path d="M24 34 Q12 34 4 38" stroke="currentColor" stroke-width="2.5" stroke-linecap="round" fill="none"/>
  <path d="M26 40 Q16 44 8 52" stroke="currentColor" stroke-width="2.5" stroke-linecap="round" fill="none"/>
  <!-- Legs - right side -->
  <path d="M40 26 Q50 18 58 14" stroke="currentColor" stroke-width="2.5" stroke-linecap="round" fill="none"/>
  <path d="M40 30 Q52 26 60 24" stroke="currentColor" stroke-width="2.5" stroke-linecap="round" fill="none"/>
  <path d="M40 34 Q52 34 60 38" stroke="currentColor" stroke-width="2.5" stroke-linecap="round" fill="none"/>
  <path d="M38 40 Q48 44 56 52" stroke="currentColor" stroke-width="2.5" stroke-linecap="round" fill="none"/>
</svg>
